<svg xmlns="http://www.w3.org/2000/svg" width="28.319" height="28.438" viewBox="0 0 28.319 28.438"><defs><style>.a{fill:#6f4dbf;}</style></defs><g transform="translate(1293.961 -4645.033)"><path class="a" d="M1938.031-301.748a14.169,14.169,0,0,1-8.906-3.158,1.1,1.1,0,0,1-.161-1.542,1.094,1.094,0,0,1,1.543-.16,11.823,11.823,0,0,0,7.523,2.663A11.976,11.976,0,0,0,1950-315.4a1.058,1.058,0,0,1,1.147-1.046,1.1,1.1,0,0,1,1.047,1.147A14.173,14.173,0,0,1,1938.031-301.748Z" transform="translate(-3217.837 4975.219)"/><path class="a" d="M1927.282-309.109l-.065,0a1.1,1.1,0,0,1-1.033-1.159,14.2,14.2,0,0,1,14.152-13.376,14.013,14.013,0,0,1,8.774,3.051,1.1,1.1,0,0,1,.181,1.541,1.1,1.1,0,0,1-1.542.181,11.837,11.837,0,0,0-7.413-2.575,12,12,0,0,0-11.961,11.3A1.1,1.1,0,0,1,1927.282-309.109Z" transform="translate(-3220.144 4968.678)"/><path class="a" d="M1927.809-306.429a1.092,1.092,0,0,1-.855-.411,1.1,1.1,0,0,1,.168-1.542l9.242-7.446a1.1,1.1,0,0,1,1.52.143l3.91,4.559,9.691-8.276a1.1,1.1,0,0,1,1.549.124,1.1,1.1,0,0,1-.123,1.546l-10.525,8.986a1.1,1.1,0,0,1-1.546-.12l-3.928-4.584-8.415,6.777A1.091,1.091,0,0,1,1927.809-306.429Z" transform="translate(-3219.662 4972.299)"/></g></svg>