<svg xmlns="http://www.w3.org/2000/svg" width="28.932" height="31.73" viewBox="0 0 28.932 31.73"><defs><style>.a{fill:#6f4dbf;}</style></defs><g transform="translate(1291.36 -4688.338)"><path class="a" d="M2043.308-557.065h-1.877v-2.709h3.068a1,1,0,0,0,1-1,1,1,0,0,0-1-1h-3.068v-1.106a1,1,0,0,0-1-1,1,1,0,0,0-1,1v1.106h-1.876a3.249,3.249,0,0,0-3.127,3.35,3.248,3.248,0,0,0,3.127,3.348h1.876v2.706h-4.005a1,1,0,0,0-1,1,1,1,0,0,0,1,1h4.005v1.106a1,1,0,0,0,1,1,1,1,0,0,0,1-1v-1.106h1.877a3.247,3.247,0,0,0,3.127-3.348A3.249,3.249,0,0,0,2043.308-557.065Zm-5.75,0a1.259,1.259,0,0,1-1.132-1.355,1.26,1.26,0,0,1,1.132-1.355h1.876v2.709Zm5.75,4.7h-1.877v-2.706h1.877a1.258,1.258,0,0,1,1.13,1.353A1.257,1.257,0,0,1,2043.308-552.364Z" transform="translate(-3318.534 5252.207)"/><path class="a" d="M2055.646-553.681a2.04,2.04,0,0,1,1.326.532c.469.471.817,1.583.346,2.054l-7.64,7.638a6.664,6.664,0,0,1-4.681,1.94h-.044s-1.677-.03-3.24-.03c-.779,0-1.53.007-2.028.03-.152.006-.3.01-.452.01-5.978,0-7.517-5.322-6.187-7.524.857-1.421,2.881-1.539,4.667-1.539.289,0,.57,0,.84,0l5.767.025c.37,0,1.792.469,1.881,1.494a1.535,1.535,0,0,1-1.176,1.737l-5.009,0a1.17,1.17,0,0,0-1.168,1.169,1.169,1.169,0,0,0,1.168,1.169h5.009a3.567,3.567,0,0,0,2.542-1.053h0s.213-.222,7.4-7.412a.925.925,0,0,1,.674-.239m0-2a2.917,2.917,0,0,0-2.086.823l-5.4,5.4c-.336-2.141-2.666-3.08-3.831-3.086l-5.769-.025-.3,0-.549,0c-1.579,0-4.862,0-6.375,2.5a6.646,6.646,0,0,0,.243,6.464,8.428,8.428,0,0,0,7.652,4.087c.177,0,.357,0,.54-.011.475-.021,1.194-.029,1.94-.029,1.543,0,3.2.029,3.205.029h0a8.728,8.728,0,0,0,6.169-2.521l7.638-7.64c1.458-1.457.722-3.806-.344-4.874a4,4,0,0,0-2.738-1.117Z" transform="translate(-3321.972 5259.58)"/></g></svg>